<svg width="2267" height="556" xmlns="http://www.w3.org/2000/svg" xmlns:xlink="http://www.w3.org/1999/xlink" xml:space="preserve" overflow="hidden"><defs><clipPath id="clip0"><rect x="717" y="463" width="2267" height="556"/></clipPath></defs><g clip-path="url(#clip0)" transform="translate(-717 -463)"><path d="M726.128 463 979.873 463C982.449 463.067 984.598 463.964 986.319 465.691 988.04 467.418 988.933 469.574 989 472.16L989 512.922C988.933 515.508 988.04 517.664 986.319 519.391 984.598 521.118 982.449 522.015 979.873 522.082L889.054 522.082 889.054 911.84C888.987 914.426 888.094 916.582 886.373 918.309 884.652 920.036 882.503 920.933 879.926 921L826.074 921C823.497 920.933 821.349 920.036 819.628 918.309 817.907 916.582 817.013 914.426 816.946 911.84L816.946 522.082 726.128 522.082C723.551 522.015 721.402 521.118 719.681 519.391 717.961 517.664 717.067 515.508 717 512.922L717 472.16C717.067 469.574 717.961 467.418 719.681 465.691 721.402 463.964 723.551 463.067 726.128 463Z" fill="#F2F2F2" fill-rule="evenodd"/><path d="M925.18 537 979.803 537C982.395 537.067 984.556 537.962 986.287 539.686 988.018 541.41 988.917 543.562 988.984 546.143L988.984 699.743 1011.02 699.743 1011.02 546.143C1011.08 543.562 1011.98 541.41 1013.71 539.686 1015.44 537.962 1017.61 537.067 1020.2 537L1074.82 537C1077.41 537.067 1079.57 537.962 1081.3 539.686 1083.03 541.41 1083.93 543.562 1084 546.143L1084 911.857C1083.93 914.438 1083.03 916.591 1081.3 918.314 1079.57 920.038 1077.41 920.933 1074.82 921L1020.2 921C1017.61 920.933 1015.44 920.038 1013.71 918.314 1011.98 916.591 1011.08 914.438 1011.02 911.857L1011.02 758.257 988.984 758.257 988.984 911.857C988.917 914.438 988.018 916.591 986.287 918.314 984.556 920.038 982.395 920.933 979.803 921L925.18 921C922.589 920.933 920.428 920.038 918.697 918.314 916.966 916.591 916.067 914.438 916 911.857L916 546.143C916.067 543.562 916.966 541.41 918.697 539.686 920.428 537.962 922.589 537.067 925.18 537Z" fill="#F2F2F2" fill-rule="evenodd"/><path d="M1121.16 537 1254.84 537C1257.21 537.038 1259.23 537.876 1260.91 539.514 1262.59 541.152 1263.47 543.362 1263.54 546.143L1263.54 586.829C1263.48 589.409 1262.58 591.562 1260.85 593.286 1259.13 595.01 1256.97 595.905 1254.39 595.971L1184.8 595.971 1184.8 690.6 1231.95 690.6C1234.54 690.667 1236.69 691.562 1238.42 693.286 1240.15 695.01 1241.04 697.162 1241.11 699.743L1241.11 744.543C1241.04 747.124 1240.15 749.276 1238.42 751 1236.69 752.724 1234.54 753.619 1231.95 753.686L1184.8 753.686 1184.8 862.029 1254.39 862.029C1256.96 862.095 1259.14 862.99 1260.91 864.714 1262.68 866.438 1263.71 868.59 1264 871.171L1264 911.857C1263.93 914.438 1263.04 916.591 1261.31 918.314 1259.58 920.038 1257.43 920.933 1254.84 921L1121.16 921C1118.57 920.933 1116.42 920.038 1114.69 918.314 1112.96 916.591 1112.07 914.438 1112 911.857L1112 546.143C1112.07 543.562 1112.96 541.41 1114.69 539.686 1116.42 537.962 1118.57 537.067 1121.16 537Z" fill="#F2F2F2" fill-rule="evenodd"/><path d="M1517.1 537 1649.9 537C1652.25 537.038 1654.26 537.876 1655.93 539.514 1657.6 541.152 1658.47 543.362 1658.55 546.143L1658.55 586.829C1658.48 589.409 1657.59 591.562 1655.87 593.286 1654.16 595.01 1652.02 595.905 1649.45 595.971L1580.32 595.971 1580.32 690.6 1627.16 690.6C1629.73 690.667 1631.87 691.562 1633.59 693.286 1635.3 695.01 1636.19 697.162 1636.26 699.743L1636.26 744.543C1636.19 747.124 1635.3 749.276 1633.59 751 1631.87 752.724 1629.73 753.619 1627.16 753.686L1580.32 753.686 1580.32 862.029 1649.45 862.029C1652.01 862.095 1654.17 862.99 1655.93 864.714 1657.69 866.438 1658.72 868.59 1659 871.171L1659 911.857C1658.93 914.438 1658.04 916.591 1656.33 918.314 1654.61 920.038 1652.47 920.933 1649.9 921L1517.1 921C1514.53 920.933 1512.39 920.038 1510.67 918.314 1508.96 916.591 1508.07 914.438 1508 911.857L1508 546.143C1508.07 543.562 1508.96 541.41 1510.67 539.686 1512.39 537.962 1514.53 537.067 1517.1 537Z" fill="#F2F2F2" fill-rule="evenodd"/><path d="M1795.18 537 1849.82 537C1852.41 537.067 1854.57 537.962 1856.3 539.686 1858.03 541.41 1858.93 543.562 1859 546.143L1859 911.857C1858.93 914.438 1858.03 916.591 1856.3 918.314 1854.57 920.038 1852.41 920.933 1849.82 921L1795.18 921C1792.59 920.933 1790.43 920.038 1788.7 918.314 1786.97 916.591 1786.07 914.438 1786 911.857L1786 546.143C1786.07 543.562 1786.97 541.41 1788.7 539.686 1790.43 537.962 1792.59 537.067 1795.18 537Z" fill="#F2F2F2" fill-rule="evenodd"/><path d="M2091.16 537 2145.63 537C2148.21 537.067 2150.37 537.962 2152.09 539.685 2153.82 541.409 2154.72 543.561 2154.78 546.142L2154.78 861.987 2176.76 861.987 2176.76 547.056C2176.82 544.475 2177.72 542.323 2179.45 540.599 2181.17 538.876 2183.33 537.981 2185.91 537.914L2240.39 537.914C2242.96 537.981 2245.14 538.876 2246.91 540.599 2248.68 542.323 2249.71 544.475 2250 547.056L2250 911.809C2249.93 914.39 2249.04 916.542 2247.31 918.265 2245.58 919.989 2243.43 920.884 2240.84 920.95L2114.04 920.95C2111.05 921.148 2107.06 920.753 2102.07 919.766 2097.08 918.778 2092.55 916.013 2088.48 911.47 2084.4 906.928 2082.24 899.422 2082 888.954L2082 546.142C2082.07 543.561 2082.96 541.409 2084.69 539.685 2086.42 537.962 2088.57 537.067 2091.16 537Z" fill="#F2F2F2" fill-rule="evenodd"/><path d="M2287.1 537 2419.9 537C2422.25 537.038 2424.26 537.876 2425.93 539.514 2427.6 541.152 2428.47 543.362 2428.54 546.143L2428.54 586.829C2428.48 589.409 2427.59 591.562 2425.87 593.286 2424.16 595.01 2422.02 595.905 2419.45 595.971L2350.32 595.971 2350.32 690.6 2397.16 690.6C2399.73 690.667 2401.87 691.562 2403.59 693.286 2405.3 695.01 2406.19 697.162 2406.26 699.743L2406.26 744.543C2406.19 747.124 2405.3 749.276 2403.59 751 2401.87 752.724 2399.73 753.619 2397.16 753.686L2350.32 753.686 2350.32 862.029 2419.45 862.029C2422.01 862.095 2424.17 862.99 2425.93 864.714 2427.69 866.438 2428.72 868.59 2429 871.171L2429 911.857C2428.93 914.438 2428.04 916.591 2426.33 918.314 2424.61 920.038 2422.47 920.933 2419.9 921L2287.1 921C2284.53 920.933 2282.39 920.038 2280.67 918.314 2278.96 916.591 2278.07 914.438 2278 911.857L2278 546.143C2278.07 543.562 2278.96 541.41 2280.67 539.686 2282.39 537.962 2284.53 537.067 2287.1 537Z" fill="#F2F2F2" fill-rule="evenodd"/><path d="M2665.16 537 2798.84 537C2801.21 537.038 2803.23 537.876 2804.91 539.514 2806.59 541.152 2807.47 543.362 2807.54 546.143L2807.54 586.829C2807.48 589.409 2806.58 591.562 2804.85 593.286 2803.13 595.01 2800.97 595.905 2798.39 595.971L2728.8 595.971 2728.8 690.6 2775.95 690.6C2778.54 690.667 2780.69 691.562 2782.42 693.286 2784.15 695.01 2785.04 697.162 2785.11 699.743L2785.11 744.543C2785.04 747.124 2784.15 749.276 2782.42 751 2780.69 752.724 2778.54 753.619 2775.95 753.686L2728.8 753.686 2728.8 862.029 2798.39 862.029C2800.96 862.095 2803.14 862.99 2804.91 864.714 2806.68 866.438 2807.71 868.59 2808 871.171L2808 911.857C2807.93 914.438 2807.04 916.591 2805.31 918.314 2803.58 920.038 2801.43 920.933 2798.84 921L2665.16 921C2662.57 920.933 2660.42 920.038 2658.69 918.314 2656.96 916.591 2656.07 914.438 2656 911.857L2656 546.143C2656.07 543.562 2656.96 541.41 2658.69 539.686 2660.42 537.962 2662.57 537.067 2665.16 537Z" fill="#F2F2F2" fill-rule="evenodd"/><path d="M2866.54 536.043 2974.86 536.043C2977.44 536.11 2979.59 537.007 2981.32 538.735 2983.04 540.463 2983.93 542.62 2984 545.208L2984 585.99C2983.93 588.577 2983.04 590.735 2981.32 592.463 2979.59 594.191 2977.44 595.088 2974.86 595.154L2907.67 595.154 2907.67 699.173 2947.89 699.173C2950.87 698.984 2954.77 699.413 2959.61 700.463 2964.44 701.512 2968.82 704.318 2972.74 708.881 2976.67 713.443 2978.74 720.9 2978.97 731.249L2978.97 888.88C2978.74 899.23 2976.62 906.686 2972.62 911.249 2968.63 915.811 2964.18 918.617 2959.27 919.667 2954.36 920.716 2950.42 921.146 2947.44 920.956L2844.14 920.956C2841.56 920.89 2839.41 919.992 2837.69 918.265 2835.96 916.537 2835.07 914.379 2835 911.792L2835 865.51C2835.07 862.924 2835.96 860.766 2837.69 859.038 2839.41 857.31 2841.56 856.413 2844.14 856.346L2906.76 856.346 2906.76 760.576 2866.54 760.576C2863.56 760.765 2859.61 760.336 2854.7 759.286 2849.8 758.237 2845.34 755.431 2841.35 750.868 2837.35 746.306 2835.24 738.85 2835 728.5L2835 567.661C2835.24 557.461 2837.35 550.112 2841.35 545.615 2845.34 541.117 2849.8 538.351 2854.7 537.316 2859.61 536.281 2863.56 535.856 2866.54 536.043Z" fill="#F2F2F2" fill-rule="evenodd"/><path d="M1300.15 463 1348.64 463C1351.22 463.08 1353.38 464.148 1355.1 466.204 1356.83 468.26 1357.72 470.827 1357.79 473.905L1414.97 697.452 1414.97 473.905C1415.04 470.827 1415.93 468.26 1417.66 466.204 1419.38 464.148 1421.54 463.08 1424.12 463L1429.53 463 1849.85 463C1852.43 463.067 1854.59 463.964 1856.31 465.691 1858.04 467.418 1858.93 469.574 1859 472.16L1859 512.922C1858.93 515.508 1858.04 517.664 1856.31 519.391 1854.59 521.118 1852.43 522.015 1849.85 522.082L1758.82 522.082 1758.82 911.84C1758.75 914.426 1757.86 916.582 1756.13 918.309 1754.41 920.036 1752.25 920.933 1749.67 921L1695.69 921C1693.11 920.933 1690.95 920.036 1689.23 918.309 1687.5 916.582 1686.61 914.426 1686.54 911.84L1686.54 522.082 1480.84 522.23 1480.84 910.095C1480.78 913.174 1479.88 915.741 1478.16 917.797 1476.43 919.853 1474.28 920.92 1471.69 921L1424.12 921C1421.54 920.92 1419.38 919.853 1417.66 917.797 1415.93 915.741 1415.04 913.174 1414.97 910.095L1357.79 702.905 1357.79 910.095C1357.72 913.174 1356.83 915.741 1355.1 917.797 1353.38 919.853 1351.22 920.92 1348.64 921L1300.15 921C1297.57 920.92 1295.41 919.853 1293.69 917.797 1291.96 915.741 1291.07 913.174 1291 910.095L1291 473.905C1291.07 470.827 1291.96 468.26 1293.69 466.204 1295.41 464.148 1297.57 463.08 1300.15 463Z" fill="#F2F2F2" fill-rule="evenodd"/><path d="M1958.71 595.174 1958.71 861.537 1980.66 861.537 1980.66 595.174 1958.71 595.174ZM1913.05 536.064C1914.47 535.959 1915.82 535.983 1917.09 536.135L2022.27 536.135C2025.25 535.946 2029.19 536.376 2034.11 537.424 2039.02 538.472 2043.47 541.274 2047.47 545.831 2051.47 550.388 2053.58 557.835 2053.82 568.172L2053.82 943.917 2974.14 943.813C2979.59 943.813 2984 948.229 2984 953.678L2984 993.135C2984 998.583 2979.59 1003 2974.14 1003L2026.38 1002.96C2023.4 1003.15 2019.46 1002.72 2014.55 1001.67 2009.63 1000.62 2005.18 997.818 2001.18 993.261 1997.19 988.704 1995.07 981.257 1994.83 970.92L1994.83 920.576 1917.55 920.576C1914.57 920.766 1910.63 920.336 1905.71 919.288 1900.8 918.24 1896.35 915.438 1892.35 910.88 1888.35 906.324 1886.24 898.877 1886 888.539L1886 568.172C1886.75 553.222 1890.85 543.992 1898.29 540.483 1903.87 537.852 1908.79 536.378 1913.05 536.064Z" fill="#F2F2F2" fill-rule="evenodd"/><path d="M2365.15 463 2519.13 463C2521.86 463 2524.32 464.105 2526.11 465.892L2528.99 472.849 2529 472.872 2529 512.358 2528.95 512.474 2528.56 911.84C2528.5 914.426 2527.6 916.582 2525.87 918.309 2524.15 920.036 2521.99 920.933 2519.41 921L2465.4 921C2462.81 920.933 2460.66 920.036 2458.93 918.309 2457.21 916.582 2456.31 914.426 2456.24 911.84L2456.24 522.23 2456.24 522.082 2365.15 522.082C2362.57 522.015 2360.42 521.118 2358.69 519.391 2356.96 517.664 2356.07 515.507 2356 512.922L2356 472.16C2356.07 469.574 2356.96 467.418 2358.69 465.691Z" fill="#F2F2F2" fill-rule="evenodd"/><path d="M2556.36 471.148 2556.35 512.348 2556 511.497 2556 472.011ZM2563.75 463 2619.59 463 2718.89 463C2721.46 463.067 2723.61 463.964 2725.32 465.691 2727.04 467.418 2727.93 469.574 2728 472.16L2728 512.922C2727.93 515.508 2727.04 517.664 2725.32 519.391L2720.6 521.369 2720.59 521.369 2718.89 522.082 2628.26 522.082 2628.26 911.84C2628.2 914.426 2627.3 916.582 2625.59 918.309 2623.87 920.036 2621.72 920.933 2619.15 921L2565.41 921C2562.84 920.933 2560.7 920.036 2558.98 918.309 2557.26 916.582 2556.37 914.426 2556.31 911.84L2556.35 512.348 2556.36 471.149 2558.88 465.031Z" fill="#F2F2F2" fill-rule="evenodd"/><path d="M1825.97 988.09C1828.29 988.126 1830.1 988.822 1831.4 990.177 1832.7 991.532 1833.36 993.326 1833.38 995.557 1833.36 997.772 1832.7 999.561 1831.4 1000.92 1830.1 1002.29 1828.29 1002.99 1825.97 1003.03 1823.7 1002.99 1821.9 1002.29 1820.6 1000.93 1819.3 999.562 1818.63 997.773 1818.61 995.559 1818.63 993.327 1819.3 991.533 1820.6 990.178 1821.9 988.822 1823.7 988.126 1825.97 988.09ZM1431.18 988.09C1433.5 988.126 1435.31 988.822 1436.61 990.177 1437.91 991.532 1438.57 993.326 1438.59 995.557 1438.57 997.772 1437.91 999.561 1436.61 1000.92 1435.31 1002.29 1433.5 1002.99 1431.18 1003.03 1428.91 1002.99 1427.11 1002.29 1425.81 1000.93 1424.51 999.562 1423.84 997.773 1423.82 995.559 1423.84 993.327 1424.51 991.533 1425.81 990.178 1427.11 988.822 1428.91 988.126 1431.18 988.09ZM1947.36 966.324C1944.46 966.364 1942.21 967.475 1940.63 969.656 1939.05 971.836 1938.24 974.846 1938.22 978.685 1938.24 982.542 1939.04 985.556 1940.61 987.729 1942.19 989.903 1944.44 991.008 1947.36 991.045 1950.27 991.01 1952.52 989.911 1954.13 987.75 1955.74 985.589 1956.55 982.581 1956.58 978.726 1956.55 974.867 1955.73 971.846 1954.12 969.66 1952.5 967.476 1950.25 966.363 1947.36 966.324ZM1131.13 966.324C1128.27 966.359 1126.04 967.49 1124.45 969.717 1122.86 971.944 1122.06 975.056 1122.03 979.054 1122.05 983.07 1122.86 986.188 1124.44 988.407 1126.02 990.626 1128.25 991.752 1131.13 991.785 1134.02 991.752 1136.27 990.626 1137.89 988.407 1139.5 986.188 1140.32 983.07 1140.35 979.054 1140.32 975.074 1139.49 971.967 1137.87 969.733 1136.25 967.498 1134 966.362 1131.13 966.324ZM1863.68 965.708C1860.86 965.744 1858.68 966.926 1857.14 969.255 1855.61 971.585 1854.83 974.851 1854.82 979.054 1854.83 983.31 1855.6 986.584 1857.13 988.879 1858.66 991.174 1860.84 992.333 1863.68 992.359 1866.5 992.331 1868.68 991.166 1870.21 988.864 1871.75 986.562 1872.52 983.292 1872.54 979.054 1872.52 974.851 1871.74 971.585 1870.2 969.255 1868.66 966.926 1866.48 965.744 1863.68 965.708ZM1565.91 965.708C1563.09 965.744 1560.91 966.926 1559.38 969.255 1557.85 971.585 1557.07 974.851 1557.05 979.054 1557.07 983.31 1557.84 986.584 1559.36 988.879 1560.89 991.174 1563.07 992.333 1565.91 992.359 1568.74 992.331 1570.91 991.166 1572.45 988.864 1573.98 986.562 1574.76 983.292 1574.78 979.054 1574.76 974.851 1573.97 971.585 1572.43 969.255 1570.89 966.926 1568.72 965.744 1565.91 965.708ZM1742.76 965.01C1740.26 965.046 1738.22 965.878 1736.65 967.506 1735.07 969.134 1734.17 971.342 1733.94 974.13L1751.24 974.13C1751.09 971.27 1750.28 969.041 1748.79 967.444 1747.31 965.847 1745.3 965.036 1742.76 965.01ZM1518.6 965.01C1516.1 965.046 1514.06 965.878 1512.49 967.506 1510.91 969.134 1510.01 971.342 1509.78 974.13L1527.07 974.13C1526.93 971.27 1526.12 969.041 1524.63 967.444 1523.15 965.847 1521.14 965.036 1518.6 965.01ZM1347.97 965.01C1345.47 965.046 1343.43 965.878 1341.86 967.506 1340.28 969.134 1339.38 971.342 1339.15 974.13L1356.45 974.13C1356.3 971.27 1355.49 969.041 1354 967.444 1352.52 965.847 1350.51 965.036 1347.97 965.01ZM1234.22 965.01C1231.72 965.046 1229.68 965.878 1228.1 967.506 1226.53 969.134 1225.63 971.342 1225.4 974.13L1242.69 974.13C1242.55 971.27 1241.74 969.041 1240.25 967.444 1238.77 965.847 1236.76 965.036 1234.22 965.01ZM1026.79 965.01C1024.28 965.046 1022.24 965.878 1020.67 967.506 1019.1 969.134 1018.2 971.342 1017.97 974.13L1035.26 974.13C1035.12 971.27 1034.3 969.041 1032.82 967.444 1031.33 965.847 1029.32 965.036 1026.79 965.01ZM929.764 965.01C927.26 965.046 925.22 965.878 923.647 967.506 922.073 969.134 921.171 971.342 920.94 974.13L938.236 974.13C938.094 971.27 937.28 969.041 935.794 967.444 934.309 965.847 932.299 965.036 929.764 965.01ZM1700.17 956.311 1712.68 956.311 1712.68 1001.8 1700.17 1001.8ZM1643.3 956.311 1655.8 956.311 1655.8 1001.8 1643.3 1001.8ZM1164.32 956.311 1176.86 956.311 1176.86 982.67C1176.88 985.665 1177.59 987.906 1179 989.393 1180.4 990.879 1182.37 991.622 1184.9 991.62 1187.51 991.591 1189.59 990.767 1191.14 989.146 1192.69 987.526 1193.49 985.284 1193.53 982.421L1193.53 956.311 1206.07 956.311 1206.07 1001.8 1193.88 1001.8 1193.88 994.452 1193.17 994.452C1192.13 997.135 1190.47 999.197 1188.21 1000.64 1185.95 1002.08 1183.24 1002.81 1180.07 1002.82 1176.91 1002.81 1174.14 1002.14 1171.79 1000.8 1169.44 999.455 1167.61 997.514 1166.3 994.974 1165 992.434 1164.34 989.359 1164.32 985.749ZM1087.92 956.311 1100.42 956.311 1100.42 1001.8 1087.92 1001.8ZM1943.09 955.613C1946.03 955.636 1948.64 956.35 1950.93 957.753 1953.22 959.156 1954.95 961.112 1956.11 963.619L1956.85 963.619 1956.85 956.311 1969 956.311 1969 1001.43C1968.98 1005.03 1968.08 1008.15 1966.31 1010.77 1964.53 1013.39 1962.01 1015.41 1958.74 1016.84 1955.48 1018.26 1951.59 1018.98 1947.09 1019 1943.13 1018.98 1939.67 1018.42 1936.71 1017.31 1933.75 1016.19 1931.42 1014.63 1929.7 1012.62 1927.98 1010.61 1927.01 1008.25 1926.78 1005.54L1939.05 1005.54C1939.34 1006.85 1940.22 1007.88 1941.68 1008.64 1943.14 1009.4 1945.04 1009.79 1947.4 1009.81 1950.28 1009.79 1952.51 1009.13 1954.08 1007.81 1955.65 1006.5 1956.44 1004.63 1956.46 1002.21L1956.46 993.877 1955.75 993.877C1954.58 996.262 1952.9 998.068 1950.71 999.294 1948.51 1000.52 1945.88 1001.14 1942.81 1001.14 1939.21 1001.12 1936.11 1000.19 1933.51 998.368 1930.91 996.543 1928.91 993.958 1927.5 990.614 1926.1 987.27 1925.38 983.307 1925.37 978.726 1925.38 973.968 1926.1 969.866 1927.52 966.419 1928.94 962.973 1930.97 960.316 1933.61 958.448 1936.25 956.581 1939.41 955.636 1943.09 955.613ZM1917.66 955.613C1918.5 955.613 1919.34 955.665 1920.2 955.767 1921.06 955.87 1921.75 956.024 1922.29 956.229L1922.29 967.843C1921.74 967.631 1920.9 967.45 1919.79 967.299 1918.67 967.149 1917.65 967.07 1916.72 967.063 1913.66 967.085 1911.2 967.975 1909.36 969.732 1907.52 971.489 1906.58 973.981 1906.53 977.207L1906.53 1001.8 1893.99 1001.8 1893.99 956.311 1906.14 956.311 1906.14 963.657 1906.88 963.657C1907.48 961.329 1908.75 959.419 1910.69 957.927 1912.62 956.435 1914.95 955.664 1917.66 955.613ZM1126.86 955.613C1129.82 955.639 1132.44 956.368 1134.72 957.799 1137 959.231 1138.72 961.212 1139.88 963.743L1140.58 963.743 1140.58 956.311 1152.77 956.311 1152.77 1015.84 1140.23 1015.84 1140.23 994.821 1139.49 994.821C1138.36 997.242 1136.69 999.121 1134.51 1000.46 1132.32 1001.8 1129.67 1002.48 1126.58 1002.5 1121.09 1002.43 1116.83 1000.34 1113.79 996.215 1110.76 992.095 1109.22 986.348 1109.18 978.972 1109.19 974.134 1109.91 969.974 1111.33 966.492 1112.75 963.011 1114.78 960.333 1117.41 958.457 1120.05 956.582 1123.2 955.634 1126.86 955.613ZM1863.68 955.285C1870.47 955.353 1875.77 957.465 1879.58 961.621 1883.39 965.778 1885.33 971.575 1885.4 979.013 1885.34 986.562 1883.42 992.404 1879.64 996.539 1875.86 1000.67 1870.54 1002.77 1863.68 1002.82 1856.82 1002.77 1851.5 1000.67 1847.72 996.523 1843.93 992.381 1842.02 986.544 1841.96 979.013 1841.98 974.092 1842.86 969.864 1844.6 966.328 1846.35 962.792 1848.83 960.073 1852.07 958.17 1855.31 956.267 1859.18 955.306 1863.68 955.285ZM1787.88 955.285C1793.64 955.3 1798.11 956.48 1801.27 958.824 1804.43 961.169 1806.16 964.586 1806.46 969.075L1794.98 969.075C1794.71 967.648 1793.99 966.541 1792.8 965.756 1791.61 964.97 1790.01 964.571 1788 964.559 1786.02 964.577 1784.42 964.982 1783.21 965.775 1781.99 966.568 1781.36 967.641 1781.33 968.994 1781.32 970.031 1781.77 970.882 1782.66 971.55 1783.55 972.217 1784.92 972.761 1786.78 973.182L1795.33 975.112C1799.54 976.031 1802.63 977.489 1804.6 979.485 1806.57 981.482 1807.54 984.172 1807.52 987.555 1807.49 990.664 1806.68 993.358 1805.06 995.637 1803.45 997.916 1801.18 999.679 1798.27 1000.93 1795.35 1002.17 1791.93 1002.81 1788 1002.82 1782.01 1002.8 1777.33 1001.61 1773.96 999.243 1770.59 996.875 1768.7 993.444 1768.28 988.952L1780.43 988.952C1780.82 990.436 1781.67 991.571 1782.97 992.358 1784.27 993.145 1786.01 993.542 1788.19 993.55 1790.3 993.53 1791.98 993.118 1793.22 992.313 1794.47 991.508 1795.1 990.428 1795.13 989.074 1795.15 988.057 1794.75 987.226 1793.93 986.579 1793.12 985.933 1791.81 985.409 1790 985.009L1782.03 983.202C1777.77 982.243 1774.58 980.66 1772.48 978.454 1770.38 976.247 1769.33 973.381 1769.34 969.856 1769.36 966.885 1770.13 964.312 1771.65 962.137 1773.17 959.963 1775.32 958.281 1778.09 957.092 1780.86 955.903 1784.12 955.301 1787.88 955.285ZM1742.73 955.285C1749.3 955.337 1754.38 957.357 1757.97 961.344 1761.56 965.331 1763.38 970.975 1763.42 978.274L1763.42 982.09 1733.9 982.09 1733.9 982.788C1734.01 986.001 1734.88 988.509 1736.51 990.31 1738.14 992.112 1740.39 993.027 1743.23 993.057 1745.38 993.05 1747.17 992.664 1748.6 991.902 1750.03 991.14 1751.03 990.047 1751.59 988.623L1763.11 988.621C1762.25 993.021 1760.04 996.476 1756.48 998.986 1752.93 1001.5 1748.39 1002.78 1742.88 1002.82 1736.07 1002.77 1730.82 1000.71 1727.13 996.641 1723.43 992.572 1721.56 986.805 1721.52 979.341 1721.58 971.8 1723.46 965.922 1727.18 961.708 1730.9 957.494 1736.08 955.353 1742.73 955.285ZM1615.9 955.285C1621.81 955.339 1626.44 956.904 1629.79 959.979 1633.15 963.055 1635.07 967.319 1635.54 972.771L1623.94 972.771C1623.58 970.594 1622.73 968.892 1621.39 967.664 1620.04 966.436 1618.22 965.812 1615.9 965.79 1612.99 965.798 1610.77 966.912 1609.25 969.132 1607.74 971.352 1606.97 974.632 1606.96 978.972 1606.97 983.373 1607.74 986.696 1609.27 988.941 1610.8 991.185 1613.01 992.311 1615.9 992.318 1618.14 992.313 1619.95 991.749 1621.32 990.624 1622.68 989.5 1623.56 987.847 1623.94 985.666L1635.54 985.666C1635.05 990.979 1633.11 995.152 1629.71 998.186 1626.32 1001.22 1621.73 1002.77 1615.94 1002.82 1608.95 1002.79 1603.62 1000.74 1599.94 996.672 1596.26 992.603 1594.41 986.702 1594.38 978.972 1594.41 971.302 1596.26 965.445 1599.94 961.401 1603.61 957.356 1608.93 955.317 1615.9 955.285ZM1565.91 955.285C1572.7 955.353 1578 957.465 1581.82 961.621 1585.63 965.778 1587.57 971.575 1587.63 979.013 1587.58 986.562 1585.66 992.404 1581.87 996.539 1578.09 1000.67 1572.77 1002.77 1565.91 1002.82 1559.06 1002.77 1553.74 1000.67 1549.95 996.523 1546.17 992.381 1544.25 986.544 1544.2 979.013 1544.21 974.092 1545.09 969.864 1546.84 966.328 1548.58 962.792 1551.07 960.073 1554.31 958.17 1557.54 956.267 1561.41 955.306 1565.91 955.285ZM1518.56 955.285C1525.14 955.337 1530.22 957.357 1533.81 961.344 1537.4 965.331 1539.22 970.975 1539.26 978.274L1539.26 982.09 1509.74 982.09 1509.74 982.788C1509.85 986.001 1510.71 988.509 1512.35 990.31 1513.98 992.112 1516.22 993.027 1519.07 993.057 1521.22 993.05 1523.01 992.664 1524.44 991.902 1525.87 991.14 1526.87 990.047 1527.43 988.623L1538.95 988.621C1538.09 993.021 1535.88 996.476 1532.32 998.986 1528.77 1001.5 1524.23 1002.78 1518.72 1002.82 1511.91 1002.77 1506.66 1000.71 1502.97 996.641 1499.27 992.572 1497.4 986.805 1497.36 979.341 1497.42 971.8 1499.3 965.922 1503.02 961.708 1506.74 957.494 1511.92 955.353 1518.56 955.285ZM1475.48 955.285C1480.33 955.316 1484.05 956.804 1486.66 959.748 1489.26 962.693 1490.58 966.91 1490.61 972.4L1490.61 1001.8 1478.07 1001.8 1478.07 975.439C1478.06 972.492 1477.4 970.246 1476.08 968.7 1474.76 967.155 1472.82 966.376 1470.26 966.365 1467.62 966.405 1465.54 967.26 1464.01 968.931 1462.48 970.603 1461.7 972.855 1461.67 975.688L1461.67 1001.8 1449.13 1001.8 1449.13 956.311 1461.28 956.311 1461.28 963.657 1462.03 963.657C1463.05 961.064 1464.74 959.027 1467.1 957.547 1469.47 956.067 1472.26 955.313 1475.48 955.285ZM1393.09 955.285C1398.85 955.3 1403.32 956.48 1406.48 958.824 1409.64 961.169 1411.37 964.586 1411.67 969.075L1400.19 969.075C1399.92 967.648 1399.2 966.541 1398.01 965.756 1396.81 964.97 1395.22 964.571 1393.21 964.559 1391.23 964.577 1389.63 964.982 1388.42 965.775 1387.2 966.568 1386.57 967.641 1386.54 968.994 1386.53 970.031 1386.98 970.882 1387.87 971.55 1388.76 972.217 1390.13 972.761 1391.99 973.182L1400.54 975.112C1404.75 976.031 1407.84 977.489 1409.81 979.485 1411.78 981.482 1412.75 984.172 1412.73 987.555 1412.7 990.664 1411.89 993.358 1410.27 995.637 1408.66 997.916 1406.39 999.679 1403.48 1000.93 1400.56 1002.17 1397.14 1002.81 1393.21 1002.82 1387.22 1002.8 1382.54 1001.61 1379.17 999.243 1375.8 996.875 1373.91 993.444 1373.49 988.952L1385.64 988.952C1386.03 990.436 1386.88 991.571 1388.18 992.358 1389.48 993.145 1391.22 993.542 1393.4 993.55 1395.51 993.53 1397.19 993.118 1398.43 992.313 1399.68 991.508 1400.31 990.428 1400.34 989.074 1400.36 988.057 1399.96 987.226 1399.14 986.579 1398.33 985.933 1397.02 985.409 1395.21 985.009L1387.24 983.202C1382.98 982.243 1379.79 980.66 1377.69 978.454 1375.59 976.247 1374.54 973.381 1374.55 969.856 1374.57 966.885 1375.34 964.312 1376.86 962.137 1378.38 959.963 1380.53 958.281 1383.3 957.092 1386.07 955.903 1389.33 955.301 1393.09 955.285ZM1347.94 955.285C1354.51 955.337 1359.59 957.357 1363.18 961.344 1366.77 965.331 1368.59 970.975 1368.63 978.274L1368.63 982.09 1339.11 982.09 1339.11 982.788C1339.22 986.001 1340.08 988.509 1341.72 990.31 1343.35 992.112 1345.59 993.027 1348.44 993.057 1350.59 993.05 1352.38 992.664 1353.81 991.902 1355.24 991.14 1356.24 990.047 1356.8 988.623L1368.32 988.621C1367.46 993.021 1365.25 996.476 1361.69 998.986 1358.14 1001.5 1353.6 1002.78 1348.09 1002.82 1341.28 1002.77 1336.03 1000.71 1332.34 996.641 1328.64 992.572 1326.77 986.805 1326.73 979.341 1326.79 971.8 1328.67 965.922 1332.39 961.708 1336.11 957.494 1341.29 955.353 1347.94 955.285ZM1234.18 955.285C1240.76 955.337 1245.84 957.357 1249.43 961.344 1253.02 965.331 1254.83 970.975 1254.88 978.274L1254.88 982.09 1225.36 982.09 1225.36 982.788C1225.46 986.001 1226.33 988.509 1227.97 990.31 1229.6 992.112 1231.84 993.027 1234.69 993.057 1236.84 993.05 1238.63 992.664 1240.06 991.902 1241.49 991.14 1242.48 990.047 1243.04 988.623L1254.57 988.621C1253.7 993.021 1251.49 996.476 1247.94 998.986 1244.38 1001.5 1239.85 1002.78 1234.34 1002.82 1227.53 1002.77 1222.28 1000.71 1218.58 996.641 1214.89 992.572 1213.02 986.805 1212.97 979.341 1213.03 971.8 1214.92 965.922 1218.64 961.708 1222.35 957.494 1227.53 955.353 1234.18 955.285ZM1026.75 955.285C1033.32 955.337 1038.41 957.357 1042 961.344 1045.58 965.331 1047.4 970.975 1047.45 978.274L1047.45 982.09 1017.93 982.09 1017.93 982.788C1018.03 986.001 1018.9 988.509 1020.53 990.31 1022.17 992.112 1024.41 993.027 1027.26 993.057 1029.41 993.05 1031.2 992.664 1032.63 991.902 1034.06 991.14 1035.05 990.047 1035.61 988.623L1047.14 988.621C1046.27 993.021 1044.06 996.476 1040.51 998.986 1036.95 1001.5 1032.42 1002.78 1026.91 1002.82 1020.1 1002.77 1014.85 1000.71 1011.15 996.641 1007.46 992.572 1005.59 986.805 1005.54 979.341 1005.6 971.8 1007.49 965.922 1011.21 961.708 1014.92 957.494 1020.1 955.353 1026.75 955.285ZM983.663 955.285C988.512 955.316 992.239 956.804 994.844 959.748 997.449 962.693 998.765 966.91 998.793 972.4L998.793 1001.8 986.251 1001.8 986.251 975.439C986.245 972.492 985.582 970.246 984.261 968.7 982.941 967.155 981.003 966.376 978.447 966.365 975.807 966.405 973.723 967.26 972.196 968.931 970.669 970.603 969.89 972.855 969.858 975.688L969.858 1001.8 957.317 1001.8 957.317 956.311 969.466 956.311 969.466 963.657 970.211 963.657C971.232 961.064 972.925 959.027 975.29 957.547 977.654 956.067 980.445 955.313 983.663 955.285ZM929.725 955.285C936.3 955.337 941.382 957.357 944.971 961.344 948.56 965.331 950.378 970.975 950.424 978.274L950.424 982.09 920.901 982.09 920.901 982.788C921.006 986.001 921.875 988.509 923.509 990.31 925.143 992.112 927.385 993.027 930.235 993.057 932.385 993.05 934.174 992.664 935.603 991.902 937.032 991.14 938.027 990.047 938.588 988.623L950.111 988.621C949.246 993.021 947.036 996.476 943.482 998.986 939.927 1001.5 935.394 1002.78 929.882 1002.82 923.074 1002.77 917.822 1000.71 914.127 996.641 910.431 992.572 908.561 986.805 908.516 979.341 908.577 971.8 910.465 965.922 914.18 961.708 917.896 957.494 923.078 955.353 929.725 955.285ZM1669.89 945.842 1682.43 945.842 1682.43 956.845 1691.49 956.845 1691.49 966.94 1682.43 966.94 1682.43 986.364C1682.43 988.208 1682.86 989.581 1683.75 990.481 1684.63 991.381 1686.01 991.829 1687.88 991.826 1688.63 991.825 1689.26 991.806 1689.77 991.769 1690.28 991.732 1690.79 991.683 1691.3 991.62L1691.3 1001.35C1690.56 1001.51 1689.65 1001.65 1688.59 1001.76 1687.53 1001.86 1686.39 1001.92 1685.18 1001.92 1679.76 1001.96 1675.84 1000.98 1673.44 999.001 1671.03 997.021 1669.85 993.821 1669.89 989.403L1669.89 966.94 1663.11 966.94 1663.11 956.845 1669.89 956.845ZM1298.52 945.842 1311.06 945.842 1311.06 956.845 1320.12 956.845 1320.12 966.94 1311.06 966.94 1311.06 986.364C1311.06 988.208 1311.49 989.581 1312.38 990.481 1313.26 991.381 1314.64 991.829 1316.51 991.826 1317.26 991.825 1317.89 991.806 1318.4 991.769 1318.91 991.732 1319.42 991.683 1319.93 991.62L1319.93 1001.35C1319.19 1001.51 1318.28 1001.65 1317.22 1001.76 1316.16 1001.86 1315.02 1001.92 1313.81 1001.92 1308.39 1001.96 1304.47 1000.98 1302.07 999.001 1299.66 997.021 1298.48 993.821 1298.52 989.403L1298.52 966.94 1291.74 966.94 1291.74 956.845 1298.52 956.845ZM1265.07 945.842 1277.61 945.842 1277.61 956.845 1286.66 956.845 1286.66 966.94 1277.61 966.94 1277.61 986.364C1277.6 988.208 1278.04 989.581 1278.92 990.481 1279.81 991.381 1281.18 991.829 1283.06 991.826 1283.8 991.825 1284.43 991.806 1284.94 991.769 1285.45 991.732 1285.96 991.683 1286.47 991.62L1286.47 1001.35C1285.73 1001.51 1284.83 1001.65 1283.76 1001.76 1282.7 1001.86 1281.56 1001.92 1280.35 1001.92 1274.93 1001.96 1271.02 1000.98 1268.61 999.001 1266.2 997.021 1265.02 993.821 1265.07 989.403L1265.07 966.94 1258.28 966.94 1258.28 956.845 1265.07 956.845ZM1057.63 945.842 1070.18 945.842 1070.18 956.845 1079.23 956.845 1079.23 966.94 1070.18 966.94 1070.18 986.364C1070.17 988.208 1070.61 989.581 1071.49 990.481 1072.37 991.381 1073.75 991.829 1075.63 991.826 1076.37 991.825 1077 991.806 1077.51 991.769 1078.02 991.732 1078.53 991.683 1079.04 991.62L1079.04 1001.35C1078.3 1001.51 1077.4 1001.65 1076.33 1001.76 1075.27 1001.86 1074.13 1001.92 1072.92 1001.92 1067.5 1001.96 1063.58 1000.98 1061.18 999.001 1058.77 997.021 1057.59 993.821 1057.63 989.403L1057.63 966.94 1050.85 966.94 1050.85 956.845 1057.63 956.845ZM826.783 945.842 839.324 945.842 839.324 956.845 848.381 956.845 848.381 966.94 839.324 966.94 839.324 986.364C839.316 988.208 839.754 989.581 840.638 990.481 841.521 991.381 842.9 991.829 844.774 991.826 845.519 991.825 846.146 991.806 846.656 991.769 847.166 991.732 847.675 991.683 848.185 991.62L848.185 1001.35C847.445 1001.51 846.543 1001.65 845.48 1001.76 844.416 1001.86 843.279 1001.92 842.069 1001.92 836.647 1001.96 832.733 1000.98 830.325 999.001 827.917 997.021 826.736 993.821 826.783 989.403L826.783 966.94 820 966.94 820 956.845 826.783 956.845ZM857.299 939.109 869.605 939.109 869.605 963.821 870.311 963.821C871.34 961.192 873.057 959.145 875.463 957.68 877.87 956.216 880.675 955.472 883.881 955.449 888.741 955.476 892.514 956.951 895.199 959.876 897.884 962.802 899.246 967.017 899.285 972.524L899.285 1001.8 886.744 1001.8 886.744 975.603C886.725 972.62 886.017 970.364 884.621 968.834 883.224 967.303 881.252 966.535 878.704 966.53 876.018 966.572 873.879 967.432 872.286 969.111 870.694 970.79 869.879 973.036 869.84 975.849L869.84 1001.8 857.299 1001.8ZM1706.41 938C1708.66 938.029 1710.43 938.607 1711.71 939.734 1712.98 940.861 1713.63 942.362 1713.66 944.238 1713.63 946.134 1712.98 947.647 1711.71 948.778 1710.43 949.909 1708.66 950.489 1706.41 950.517 1704.17 950.489 1702.41 949.909 1701.14 948.778 1699.87 947.647 1699.22 946.134 1699.19 944.238 1699.22 942.362 1699.87 940.861 1701.14 939.734 1702.41 938.607 1704.17 938.029 1706.41 938ZM1649.53 938C1651.79 938.029 1653.55 938.607 1654.83 939.734 1656.11 940.861 1656.76 942.362 1656.78 944.238 1656.76 946.134 1656.11 947.647 1654.83 948.778 1653.55 949.909 1651.79 950.489 1649.53 950.517 1647.29 950.489 1645.54 949.909 1644.26 948.778 1642.99 947.647 1642.34 946.134 1642.32 944.238 1642.34 942.362 1642.99 940.861 1644.26 939.734 1645.54 938.607 1647.29 938.029 1649.53 938ZM1094.15 938C1096.4 938.029 1098.17 938.607 1099.45 939.734 1100.73 940.861 1101.38 942.362 1101.4 944.238 1101.38 946.134 1100.73 947.647 1099.45 948.778 1098.17 949.909 1096.4 950.489 1094.15 950.517 1091.91 950.489 1090.15 949.909 1088.88 948.778 1087.61 947.647 1086.96 946.134 1086.94 944.238 1086.96 942.362 1087.61 940.861 1088.88 939.734 1090.15 938.607 1091.91 938.029 1094.15 938Z" fill="#F2F2F2" fill-rule="evenodd"/></g></svg>